# xmcd CD database file
#
# Track frame offsets:
#	150
#	14793
#	25211
#	37456
#	46746
#	57948
#	71295
#	80698
#	97010
#	110281
#
# Disc length: 1736 seconds
#
# Revision: 0
# Processed by: cddbd v1.5.2PL0 Copyright (c) Steve Scherf et al.
# Submitted via: CDex 1.70beta2
#
DISCID=8606c60a
DTITLE=Loretta Lynn - Somebody Somewhere
DYEAR=1900
DGENRE=Country
TTITLE0=Coal Miner's Daughter
TTITLE1=Somebody Somewhere
TTITLE2=Me and Bobby McGee
TTITLE3=Fist City
TTITLE4=Hey Loretta
TTITLE5=Back in My Baby's Arms
TTITLE6=Y'all Come
TTITLE7=One's On The Way
TTITLE8=Let Your Love Flow
TTITLE9=I Fall To Pieces
EXTD=
EXTT0=
EXTT1=
EXTT2=
EXTT3=
EXTT4=
EXTT5=
EXTT6=
EXTT7=
EXTT8=
EXTT9=
PLAYORDER=
